HIERARCHY
ROOT root
{
	OFFSET	0	13.1	24.9
	CHANNELS 6  Xposition Yposition Zposition Xrotation Yrotation Zrotation
	JOINT spine_1
	{
		OFFSET	0	9.99999	0
		CHANNELS 3  Xrotation Yrotation Zrotation
		JOINT spine_2
		{
			OFFSET	0	112	-10
			CHANNELS 3  Xrotation Yrotation Zrotation
			JOINT spine_3
			{
				OFFSET	0	206.5	19.3
				CHANNELS 3  Xrotation Yrotation Zrotation
				JOINT spine_4
				{
					OFFSET	0	110.4	14.6
					CHANNELS 3  Xrotation Yrotation Zrotation
					JOINT neck_1
					{
						OFFSET	0	71.8	-50.3
						CHANNELS 3  Xrotation Yrotation Zrotation
						JOINT neck_2
						{
							OFFSET	0	86.2	-25.8
							CHANNELS 3  Xrotation Yrotation Zrotation
							JOINT head_ee
							{
								OFFSET	0	179.8	-8.7
								CHANNELS 3  Xrotation Yrotation Zrotation
								End Site
								{
									OFFSET	1	0	0
								}
							}
						}
					}
					JOINT left_clavicle
					{
						OFFSET	-43.2	22.4	-70.8
						CHANNELS 3  Xrotation Yrotation Zrotation
						JOINT left_shoulder
						{
							OFFSET	-93.9	-5.79999	48.7
							CHANNELS 3  Xrotation Yrotation Zrotation
							JOINT left_elbow
							{
								OFFSET	-291.4	-30.8	15.2
								CHANNELS 3  Xrotation Yrotation Zrotation
								JOINT left_lowarm_twist
								{
									OFFSET	-110.7	-3.89999	13.6
									CHANNELS 3  Xrotation Yrotation Zrotation
									JOINT left_hand
									{
										OFFSET	-110.7	-3.89999	13.6
										CHANNELS 3  Xrotation Yrotation Zrotation
										JOINT left_ee
										{
											OFFSET	-80.8	-5.10001	12.1
											CHANNELS 3  Xrotation Yrotation Zrotation
											End Site
											{
												OFFSET	1	0	0
											}
										}
									}
								}
							}
						}
					}
					JOINT right_clavicle
					{
						OFFSET	43.2	22.4	-70.8
						CHANNELS 3  Xrotation Yrotation Zrotation
						JOINT right_shoulder
						{
							OFFSET	93.9	-5.79999	48.7
							CHANNELS 3  Xrotation Yrotation Zrotation
							JOINT right_elbow
							{
								OFFSET	291.4	-30.8	15.2
								CHANNELS 3  Xrotation Yrotation Zrotation
								JOINT right_lowarm_twist
								{
									OFFSET	110.7	-3.89999	13.6
									CHANNELS 3  Xrotation Yrotation Zrotation
									JOINT right_hand
									{
										OFFSET	110.7	-3.89999	13.6
										CHANNELS 3  Xrotation Yrotation Zrotation
										JOINT right_ee
										{
											OFFSET	80.8	-5.10001	12.1
											CHANNELS 3  Xrotation Yrotation Zrotation
											End Site
											{
												OFFSET	1	0	0
											}
										}
									}
								}
							}
						}
					}
				}
			}
		}
	}
	JOINT left_hip
	{
		OFFSET	-82.8	-127.5	0.300001
		CHANNELS 3  Xrotation Yrotation Zrotation
		JOINT left_knee
		{
			OFFSET	-28.2	-396.7	2.2
			CHANNELS 3  Xrotation Yrotation Zrotation
			JOINT left_ankle
			{
				OFFSET	-11.7	-411.3	35.4
				CHANNELS 3  Xrotation Yrotation Zrotation
				JOINT left_toes
				{
					OFFSET	0	-60	-88.6
					CHANNELS 3  Xrotation Yrotation Zrotation
					JOINT left_foot_ee
					{
						OFFSET	-22.5	-16.5	-42.2
						CHANNELS 3  Xrotation Yrotation Zrotation
						End Site
						{
							OFFSET	1	0	0
						}
					}
				}
			}
		}
	}
	JOINT right_hip
	{
		OFFSET	82.8	-127.5	0.300001
		CHANNELS 3  Xrotation Yrotation Zrotation
		JOINT right_knee
		{
			OFFSET	28.2	-396.7	2.2
			CHANNELS 3  Xrotation Yrotation Zrotation
			JOINT right_ankle
			{
				OFFSET	11.7	-411.3	35.4
				CHANNELS 3  Xrotation Yrotation Zrotation
				JOINT right_toes
				{
					OFFSET	0	-60	-88.6
					CHANNELS 3  Xrotation Yrotation Zrotation
					JOINT right_foot_ee
					{
						OFFSET	22.5	-16.5	-42.2
						CHANNELS 3  Xrotation Yrotation Zrotation
						End Site
						{
							OFFSET	1	0	0
						}
					}
				}
			}
		}
	}
}
MOTION
Frames: 14
Frame Time: 0.02
3574.42 741.953 -1474.73 148.054569751 58.4426126762 -151.76649576 -7.23582 0.257871 1.73309 -7.23416 0.147085 1.74598 -7.22567 -0.440085 1.69601 -7.22965 -0.166752 1.74421 -6.75363 0.201863 -10.4358 -6.42142 7.9724 -10.4598 -0.0 0.0 -0.0 -1.39656 -10.7227 -4.18742 10.5113 -3.61603 72.4927 1.68707 -39.883 0.61213 -10.9052 -0.509297 1.29581 2.64832 10.24 21.7585 -0.0 0.0 -0.0 0.455008 27.1103 2.1227 -0.828699 63.6686 -78.0531 0.313095 8.81642 -0.0241366 13.709 -0.277823 1.725 -1.36048 -28.8218 -3.89354 0.0 0.0 0.0 -10.5043 11.0224 -5.18681 -16.0289 0.321787 2.43075 22.9138 -21.203 -3.49416 11.2604 -0.0 -0.0 -0.0 0.0 -0.0 -10.1338 -35.1317 3.66121 -2.23626 -0.085595 -0.332494 37.7581 24.6885 5.36841 38.8896 -0.0 -0.0 0.0 0.0 0.0 
3574.42 741.953 -1474.73 147.73880872 58.7498746234 -151.39654445 -7.23582 0.257871 1.73309 -7.23416 0.147085 1.74598 -7.22567 -0.440085 1.69601 -7.22965 -0.166752 1.74421 -6.75363 0.201863 -10.4358 -6.42142 7.9724 -10.4598 -0.0 0.0 -0.0 -1.39656 -10.7227 -4.18742 10.5113 -3.61603 72.4927 1.68707 -39.883 0.61213 -10.9052 -0.509297 1.29581 2.64832 10.24 21.7585 -0.0 0.0 -0.0 0.455008 27.1103 2.1227 -0.828699 63.6686 -78.0531 0.313095 8.81642 -0.0241366 13.709 -0.277823 1.725 -1.36048 -28.8218 -3.89354 0.0 0.0 0.0 -10.5043 11.0224 -5.18681 -16.0289 0.321787 2.43075 22.9138 -21.203 -3.49416 11.2604 -0.0 -0.0 -0.0 0.0 -0.0 -10.1338 -35.1317 3.66121 -2.23626 -0.085595 -0.332494 37.7581 24.6885 5.36841 38.8896 -0.0 -0.0 0.0 0.0 0.0 
3574.42 741.953 -1474.73 147.392209462 59.0787117869 -150.991828079 -7.23582 0.257871 1.73309 -7.23416 0.147085 1.74598 -7.22567 -0.440085 1.69601 -7.22965 -0.166752 1.74421 -6.75363 0.201863 -10.4358 -6.42142 7.9724 -10.4598 -0.0 0.0 -0.0 -1.39656 -10.7227 -4.18742 10.5113 -3.61603 72.4927 1.68707 -39.883 0.61213 -10.9052 -0.509297 1.29581 2.64832 10.24 21.7585 -0.0 0.0 -0.0 0.455008 27.1103 2.1227 -0.828699 63.6686 -78.0531 0.313095 8.81642 -0.0241366 13.709 -0.277823 1.725 -1.36048 -28.8218 -3.89354 0.0 0.0 0.0 -10.5043 11.0224 -5.18681 -16.0289 0.321787 2.43075 22.9138 -21.203 -3.49416 11.2604 -0.0 -0.0 -0.0 0.0 -0.0 -10.1338 -35.1317 3.66121 -2.23626 -0.085595 -0.332494 37.7581 24.6885 5.36841 38.8896 -0.0 -0.0 0.0 0.0 0.0 
3574.42 741.953 -1474.73 146.545028813 59.847361353 -150.008251284 -7.23582 0.257871 1.73309 -7.23416 0.147085 1.74598 -7.22567 -0.440085 1.69601 -7.22965 -0.166752 1.74421 -6.75363 0.201863 -10.4358 -6.42142 7.9724 -10.4598 -0.0 0.0 -0.0 -1.39656 -10.7227 -4.18742 10.5113 -3.61603 72.4927 1.68707 -39.883 0.61213 -10.9052 -0.509297 1.29581 2.64832 10.24 21.7585 -0.0 0.0 -0.0 0.455008 27.1103 2.1227 -0.828699 63.6686 -78.0531 0.313095 8.81642 -0.0241366 13.709 -0.277823 1.725 -1.36048 -28.8218 -3.89354 0.0 0.0 0.0 -10.5043 11.0224 -5.18681 -16.0289 0.321787 2.43075 22.9138 -21.203 -3.49416 11.2604 -0.0 -0.0 -0.0 0.0 -0.0 -10.1338 -35.1317 3.66121 -2.23626 -0.085595 -0.332494 37.7581 24.6885 5.36841 38.8896 -0.0 -0.0 0.0 0.0 0.0 
3574.42 741.953 -1474.73 145.895797021 60.4048704136 -149.259544165 -7.23582 0.257871 1.73309 -7.23416 0.147085 1.74598 -7.22567 -0.440085 1.69601 -7.22965 -0.166752 1.74421 -6.75363 0.201863 -10.4358 -6.42142 7.9724 -10.4598 -0.0 0.0 -0.0 -1.39656 -10.7227 -4.18742 10.5113 -3.61603 72.4927 1.68707 -39.883 0.61213 -10.9052 -0.509297 1.29581 2.64832 10.24 21.7585 -0.0 0.0 -0.0 0.455008 27.1103 2.1227 -0.828699 63.6686 -78.0531 0.313095 8.81642 -0.0241366 13.709 -0.277823 1.725 -1.36048 -28.8218 -3.89354 0.0 0.0 0.0 -10.5043 11.0224 -5.18681 -16.0289 0.321787 2.43075 22.9138 -21.203 -3.49416 11.2604 -0.0 -0.0 -0.0 0.0 -0.0 -10.1338 -35.1317 3.66121 -2.23626 -0.085595 -0.332494 37.7581 24.6885 5.36841 38.8896 -0.0 -0.0 0.0 0.0 0.0 
3574.42 741.953 -1474.73 144.833763043 61.2629553099 -148.043348861 -7.23582 0.257871 1.73309 -7.23416 0.147085 1.74598 -7.22567 -0.440085 1.69601 -7.22965 -0.166752 1.74421 -6.75363 0.201863 -10.4358 -6.42142 7.9724 -10.4598 -0.0 0.0 -0.0 -1.39656 -10.7227 -4.18742 10.5113 -3.61603 72.4927 1.68707 -39.883 0.61213 -10.9052 -0.509297 1.29581 2.64832 10.24 21.7585 -0.0 0.0 -0.0 0.455008 27.1103 2.1227 -0.828699 63.6686 -78.0531 0.313095 8.81642 -0.0241366 13.709 -0.277823 1.725 -1.36048 -28.8218 -3.89354 0.0 0.0 0.0 -10.5043 11.0224 -5.18681 -16.0289 0.321787 2.43075 22.9138 -21.203 -3.49416 11.2604 -0.0 -0.0 -0.0 0.0 -0.0 -10.1338 -35.1317 3.66121 -2.23626 -0.085595 -0.332494 37.7581 24.6885 5.36841 38.8896 -0.0 -0.0 0.0 0.0 0.0 
3574.42 741.953 -1474.73 143.599417284 62.1841534782 -146.641814787 -7.23582 0.257871 1.73309 -7.23416 0.147085 1.74598 -7.22567 -0.440085 1.69601 -7.22965 -0.166752 1.74421 -6.75363 0.201863 -10.4358 -6.42142 7.9724 -10.4598 -0.0 0.0 -0.0 -1.39656 -10.7227 -4.18742 10.5113 -3.61603 72.4927 1.68707 -39.883 0.61213 -10.9052 -0.509297 1.29581 2.64832 10.24 21.7585 -0.0 0.0 -0.0 0.455008 27.1103 2.1227 -0.828699 63.6686 -78.0531 0.313095 8.81642 -0.0241366 13.709 -0.277823 1.725 -1.36048 -28.8218 -3.89354 0.0 0.0 0.0 -10.5043 11.0224 -5.18681 -16.0289 0.321787 2.43075 22.9138 -21.203 -3.49416 11.2604 -0.0 -0.0 -0.0 0.0 -0.0 -10.1338 -35.1317 3.66121 -2.23626 -0.085595 -0.332494 37.7581 24.6885 5.36841 38.8896 -0.0 -0.0 0.0 0.0 0.0 
3574.42 741.953 -1474.73 141.493728397 63.5916122549 -144.276429894 -7.23582 0.257871 1.73309 -7.23416 0.147085 1.74598 -7.22567 -0.440085 1.69601 -7.22965 -0.166752 1.74421 -6.75363 0.201863 -10.4358 -6.42142 7.9724 -10.4598 -0.0 0.0 -0.0 -1.39656 -10.7227 -4.18742 10.5113 -3.61603 72.4927 1.68707 -39.883 0.61213 -10.9052 -0.509297 1.29581 2.64832 10.24 21.7585 -0.0 0.0 -0.0 0.455008 27.1103 2.1227 -0.828699 63.6686 -78.0531 0.313095 8.81642 -0.0241366 13.709 -0.277823 1.725 -1.36048 -28.8218 -3.89354 0.0 0.0 0.0 -10.5043 11.0224 -5.18681 -16.0289 0.321787 2.43075 22.9138 -21.203 -3.49416 11.2604 -0.0 -0.0 -0.0 0.0 -0.0 -10.1338 -35.1317 3.66121 -2.23626 -0.085595 -0.332494 37.7581 24.6885 5.36841 38.8896 -0.0 -0.0 0.0 0.0 0.0 
3569.74388624 743.589 -1479.58586327 139.801375491 64.5102733383 -142.753227851 -7.40107 0.550965 1.72251 -7.39953 0.440258 1.75406 -7.38129 -0.170931 1.80036 -7.3858 0.115499 1.80476 -7.11129 -0.364934 -11.2844 -6.73077 7.48382 -11.3916 -0.0 0.0 -0.0 -0.975292 -11.5988 -3.41756 9.57138 -4.52558 71.9065 1.49663 -36.5503 0.494266 -11.2319 -0.528317 1.33303 2.8423 10.0905 23.0652 -0.0 0.0 -0.0 -0.269977 27.3318 3.72602 -0.27281 62.1034 -77.6344 0.40505 11.3459 -0.0402365 14.1553 -0.279883 1.78197 -1.4176 -28.7754 -3.56585 0.0 0.0 0.0 -10.0423 11.2881 -5.43237 -16.735 0.320222 2.53908 21.2614 -21.1786 -3.27236 11.3228 -0.0 -0.0 -0.0 0.0 -0.0 -10.7468 -35.8695 3.45908 -3.87912 -0.140165 -0.578713 37.8165 23.2811 5.30156 39.0597 -0.0 -0.0 0.0 0.0 0.0 
3560.08487851 744.965 -1490.45623581 139.167331165 64.2976817637 -142.463154928 -7.77024 0.856289 1.87633 -7.76858 0.735181 1.92699 -7.73743 0.0366329 2.06209 -7.74318 0.361774 2.03045 -6.2823 -0.805319 -10.9872 -5.91788 6.59302 -11.2526 -0.0 0.0 -0.0 -0.47183 -13.8315 -2.63129 7.3653 -5.63125 70.9877 1.09735 -28.5275 0.278979 -8.98775 -0.401972 1.07527 3.30856 7.45076 25.5061 -0.0 0.0 -0.0 -0.258967 28.7561 3.85204 -1.27218 59.4922 -78.1252 0.508828 14.1474 -0.0631409 13.9624 -0.279047 1.75735 -1.85949 -28.6303 -1.12267 0.0 0.0 0.0 -8.78211 12.2032 -5.3627 -17.3807 0.317623 2.6381 15.9801 -19.5093 -2.49052 10.018 -0.0 -0.0 -0.0 0.0 -0.0 -12.4077 -35.3905 2.45243 -3.93544 -0.141911 -0.58718 38.7426 23.8543 5.41993 40.178 -0.0 -0.0 0.0 0.0 0.0 
3561.31783033 744.965 -1491.49732987 132.397853031 67.4186465104 -135.049314112 -7.77024 0.856289 1.87633 -7.76858 0.735181 1.92699 -7.73743 0.0366329 2.06209 -7.74318 0.361774 2.03045 -6.2823 -0.805319 -10.9872 -5.91788 6.59302 -11.2526 -0.0 0.0 -0.0 -0.47183 -13.8315 -2.63129 7.3653 -5.63125 70.9877 1.09735 -28.5275 0.278979 -8.98775 -0.401972 1.07527 3.30856 7.45076 25.5061 -0.0 0.0 -0.0 -0.258967 28.7561 3.85204 -1.27218 59.4922 -78.1252 0.508828 14.1474 -0.0631409 13.9624 -0.279047 1.75735 -1.85949 -28.6303 -1.12267 0.0 0.0 0.0 -8.78211 12.2032 -5.3627 -17.3807 0.317623 2.6381 15.9801 -19.5093 -2.49052 10.018 -0.0 -0.0 -0.0 0.0 -0.0 -12.4077 -35.3905 2.45243 -3.93544 -0.141911 -0.58718 38.7426 23.8543 5.41993 40.178 -0.0 -0.0 0.0 0.0 0.0 
3562.64502714 744.965 -1492.4545653 123.430771241 70.1358984781 -125.435488964 -7.77024 0.856289 1.87633 -7.76858 0.735181 1.92699 -7.73743 0.0366329 2.06209 -7.74318 0.361774 2.03045 -6.2823 -0.805319 -10.9872 -5.91788 6.59302 -11.2526 -0.0 0.0 -0.0 -0.47183 -13.8315 -2.63129 7.3653 -5.63125 70.9877 1.09735 -28.5275 0.278979 -8.98775 -0.401972 1.07527 3.30856 7.45076 25.5061 -0.0 0.0 -0.0 -0.258967 28.7561 3.85204 -1.27218 59.4922 -78.1252 0.508828 14.1474 -0.0631409 13.9624 -0.279047 1.75735 -1.85949 -28.6303 -1.12267 0.0 0.0 0.0 -8.78211 12.2032 -5.3627 -17.3807 0.317623 2.6381 15.9801 -19.5093 -2.49052 10.018 -0.0 -0.0 -0.0 0.0 -0.0 -12.4077 -35.3905 2.45243 -3.93544 -0.141911 -0.58718 38.7426 23.8543 5.41993 40.178 -0.0 -0.0 0.0 0.0 0.0 
3563.81029723 744.965 -1493.17571517 114.003622368 71.9155916659 -115.470532301 -7.77024 0.856289 1.87633 -7.76858 0.735181 1.92699 -7.73743 0.0366329 2.06209 -7.74318 0.361774 2.03045 -6.2823 -0.805319 -10.9872 -5.91788 6.59302 -11.2526 -0.0 0.0 -0.0 -0.47183 -13.8315 -2.63129 7.3653 -5.63125 70.9877 1.09735 -28.5275 0.278979 -8.98775 -0.401972 1.07527 3.30856 7.45076 25.5061 -0.0 0.0 -0.0 -0.258967 28.7561 3.85204 -1.27218 59.4922 -78.1252 0.508828 14.1474 -0.0631409 13.9624 -0.279047 1.75735 -1.85949 -28.6303 -1.12267 0.0 0.0 0.0 -8.78211 12.2032 -5.3627 -17.3807 0.317623 2.6381 15.9801 -19.5093 -2.49052 10.018 -0.0 -0.0 -0.0 0.0 -0.0 -12.4077 -35.3905 2.45243 -3.93544 -0.141911 -0.58718 38.7426 23.8543 5.41993 40.178 -0.0 -0.0 0.0 0.0 0.0 
3564.70754005 744.965 -1493.66352378 105.852004405 72.8554612745 -106.91965757 -7.77024 0.856289 1.87633 -7.76858 0.735181 1.92699 -7.73743 0.0366329 2.06209 -7.74318 0.361774 2.03045 -6.2823 -0.805319 -10.9872 -5.91788 6.59302 -11.2526 -0.0 0.0 -0.0 -0.47183 -13.8315 -2.63129 7.3653 -5.63125 70.9877 1.09735 -28.5275 0.278979 -8.98775 -0.401972 1.07527 3.30856 7.45076 25.5061 -0.0 0.0 -0.0 -0.258967 28.7561 3.85204 -1.27218 59.4922 -78.1252 0.508828 14.1474 -0.0631409 13.9624 -0.279047 1.75735 -1.85949 -28.6303 -1.12267 0.0 0.0 0.0 -8.78211 12.2032 -5.3627 -17.3807 0.317623 2.6381 15.9801 -19.5093 -2.49052 10.018 -0.0 -0.0 -0.0 0.0 -0.0 -12.4077 -35.3905 2.45243 -3.93544 -0.141911 -0.58718 38.7426 23.8543 5.41993 40.178 -0.0 -0.0 0.0 0.0 0.0 
